<mxfile host="app.diagrams.net" modified="2024-02-04T18:31:19.983Z" agent="Mozilla/5.0 (Windows NT 10.0; Win64; x64) AppleWebKit/537.36 (KHTML, like Gecko) Chrome/120.0.0.0 Safari/537.36 OPR/106.0.0.0" etag="WjcwqTVimVVJxEqOVQmY" version="23.1.0" type="device">
  <diagram name="Page-1" id="e21368VojhzqiCfuvoKK">
    <mxGraphModel dx="3408" dy="1315" grid="1" gridSize="10" guides="1" tooltips="1" connect="1" arrows="1" fold="1" page="1" pageScale="1" pageWidth="850" pageHeight="1100" math="0" shadow="0">
      <root>
        <mxCell id="0" />
        <mxCell id="1" parent="0" />
        <mxCell id="G10Xkep8nLB2AmkVrxiF-490" value="" style="group" vertex="1" connectable="0" parent="1">
          <mxGeometry x="-830" y="710" width="790" height="282" as="geometry" />
        </mxCell>
        <mxCell id="G10Xkep8nLB2AmkVrxiF-491" value="" style="rounded=0;whiteSpace=wrap;html=1;" vertex="1" parent="G10Xkep8nLB2AmkVrxiF-490">
          <mxGeometry x="480" y="32" width="80" height="250" as="geometry" />
        </mxCell>
        <mxCell id="G10Xkep8nLB2AmkVrxiF-492" value="" style="ellipse;whiteSpace=wrap;html=1;aspect=fixed;" vertex="1" parent="G10Xkep8nLB2AmkVrxiF-490">
          <mxGeometry x="555" y="132" width="10" height="10" as="geometry" />
        </mxCell>
        <mxCell id="G10Xkep8nLB2AmkVrxiF-493" value="" style="ellipse;whiteSpace=wrap;html=1;aspect=fixed;" vertex="1" parent="G10Xkep8nLB2AmkVrxiF-490">
          <mxGeometry x="555" y="172" width="10" height="10" as="geometry" />
        </mxCell>
        <mxCell id="G10Xkep8nLB2AmkVrxiF-494" value="" style="ellipse;whiteSpace=wrap;html=1;aspect=fixed;" vertex="1" parent="G10Xkep8nLB2AmkVrxiF-490">
          <mxGeometry x="555" y="212" width="10" height="10" as="geometry" />
        </mxCell>
        <mxCell id="G10Xkep8nLB2AmkVrxiF-495" value="" style="ellipse;whiteSpace=wrap;html=1;aspect=fixed;" vertex="1" parent="G10Xkep8nLB2AmkVrxiF-490">
          <mxGeometry x="555" y="92" width="10" height="10" as="geometry" />
        </mxCell>
        <mxCell id="G10Xkep8nLB2AmkVrxiF-496" value="" style="ellipse;whiteSpace=wrap;html=1;aspect=fixed;" vertex="1" parent="G10Xkep8nLB2AmkVrxiF-490">
          <mxGeometry x="555" y="252" width="10" height="10" as="geometry" />
        </mxCell>
        <mxCell id="G10Xkep8nLB2AmkVrxiF-497" value="" style="ellipse;whiteSpace=wrap;html=1;aspect=fixed;" vertex="1" parent="G10Xkep8nLB2AmkVrxiF-490">
          <mxGeometry x="555" y="52" width="10" height="10" as="geometry" />
        </mxCell>
        <mxCell id="G10Xkep8nLB2AmkVrxiF-498" value="" style="ellipse;whiteSpace=wrap;html=1;aspect=fixed;" vertex="1" parent="G10Xkep8nLB2AmkVrxiF-490">
          <mxGeometry x="475" y="132" width="10" height="10" as="geometry" />
        </mxCell>
        <mxCell id="G10Xkep8nLB2AmkVrxiF-499" value="" style="ellipse;whiteSpace=wrap;html=1;aspect=fixed;" vertex="1" parent="G10Xkep8nLB2AmkVrxiF-490">
          <mxGeometry x="475" y="172" width="10" height="10" as="geometry" />
        </mxCell>
        <mxCell id="G10Xkep8nLB2AmkVrxiF-500" value="" style="ellipse;whiteSpace=wrap;html=1;aspect=fixed;" vertex="1" parent="G10Xkep8nLB2AmkVrxiF-490">
          <mxGeometry x="475" y="212" width="10" height="10" as="geometry" />
        </mxCell>
        <mxCell id="G10Xkep8nLB2AmkVrxiF-501" value="" style="ellipse;whiteSpace=wrap;html=1;aspect=fixed;" vertex="1" parent="G10Xkep8nLB2AmkVrxiF-490">
          <mxGeometry x="475" y="92" width="10" height="10" as="geometry" />
        </mxCell>
        <mxCell id="G10Xkep8nLB2AmkVrxiF-502" value="" style="ellipse;whiteSpace=wrap;html=1;aspect=fixed;" vertex="1" parent="G10Xkep8nLB2AmkVrxiF-490">
          <mxGeometry x="475" y="252" width="10" height="10" as="geometry" />
        </mxCell>
        <mxCell id="G10Xkep8nLB2AmkVrxiF-503" value="" style="ellipse;whiteSpace=wrap;html=1;aspect=fixed;" vertex="1" parent="G10Xkep8nLB2AmkVrxiF-490">
          <mxGeometry x="475" y="52" width="10" height="10" as="geometry" />
        </mxCell>
        <mxCell id="G10Xkep8nLB2AmkVrxiF-505" value="" style="endArrow=none;html=1;rounded=0;entryX=0;entryY=0.5;entryDx=0;entryDy=0;exitX=1;exitY=0.5;exitDx=0;exitDy=0;fillColor=#ffe6cc;strokeColor=#d79b00;" edge="1" parent="G10Xkep8nLB2AmkVrxiF-490" source="G10Xkep8nLB2AmkVrxiF-501" target="G10Xkep8nLB2AmkVrxiF-497">
          <mxGeometry width="50" height="50" relative="1" as="geometry">
            <mxPoint x="500" y="112" as="sourcePoint" />
            <mxPoint x="550" y="62" as="targetPoint" />
          </mxGeometry>
        </mxCell>
        <mxCell id="G10Xkep8nLB2AmkVrxiF-506" value="" style="endArrow=none;html=1;rounded=0;entryX=0;entryY=0.5;entryDx=0;entryDy=0;exitX=1;exitY=0.5;exitDx=0;exitDy=0;" edge="1" parent="G10Xkep8nLB2AmkVrxiF-490" source="G10Xkep8nLB2AmkVrxiF-498" target="G10Xkep8nLB2AmkVrxiF-495">
          <mxGeometry width="50" height="50" relative="1" as="geometry">
            <mxPoint x="500" y="152" as="sourcePoint" />
            <mxPoint x="550" y="102" as="targetPoint" />
          </mxGeometry>
        </mxCell>
        <mxCell id="G10Xkep8nLB2AmkVrxiF-507" value="" style="endArrow=none;html=1;rounded=0;entryX=0;entryY=0.5;entryDx=0;entryDy=0;exitX=1;exitY=0.5;exitDx=0;exitDy=0;" edge="1" parent="G10Xkep8nLB2AmkVrxiF-490" source="G10Xkep8nLB2AmkVrxiF-503" target="G10Xkep8nLB2AmkVrxiF-492">
          <mxGeometry width="50" height="50" relative="1" as="geometry">
            <mxPoint x="570" y="182" as="sourcePoint" />
            <mxPoint x="620" y="132" as="targetPoint" />
          </mxGeometry>
        </mxCell>
        <mxCell id="G10Xkep8nLB2AmkVrxiF-508" value="" style="endArrow=none;html=1;rounded=0;entryX=0;entryY=0.5;entryDx=0;entryDy=0;exitX=1;exitY=0.5;exitDx=0;exitDy=0;fillColor=#ffe6cc;strokeColor=#d79b00;" edge="1" parent="G10Xkep8nLB2AmkVrxiF-490" source="G10Xkep8nLB2AmkVrxiF-500" target="G10Xkep8nLB2AmkVrxiF-493">
          <mxGeometry width="50" height="50" relative="1" as="geometry">
            <mxPoint x="410" y="242" as="sourcePoint" />
            <mxPoint x="460" y="192" as="targetPoint" />
          </mxGeometry>
        </mxCell>
        <mxCell id="G10Xkep8nLB2AmkVrxiF-509" value="" style="endArrow=none;html=1;rounded=0;entryX=1;entryY=0.5;entryDx=0;entryDy=0;exitX=0;exitY=0.5;exitDx=0;exitDy=0;" edge="1" parent="G10Xkep8nLB2AmkVrxiF-490" source="G10Xkep8nLB2AmkVrxiF-494" target="G10Xkep8nLB2AmkVrxiF-499">
          <mxGeometry width="50" height="50" relative="1" as="geometry">
            <mxPoint x="410" y="252" as="sourcePoint" />
            <mxPoint x="460" y="202" as="targetPoint" />
          </mxGeometry>
        </mxCell>
        <mxCell id="G10Xkep8nLB2AmkVrxiF-510" value="" style="endArrow=none;html=1;rounded=0;entryX=0;entryY=0.5;entryDx=0;entryDy=0;exitX=1;exitY=0.5;exitDx=0;exitDy=0;" edge="1" parent="G10Xkep8nLB2AmkVrxiF-490" source="G10Xkep8nLB2AmkVrxiF-502" target="G10Xkep8nLB2AmkVrxiF-496">
          <mxGeometry width="50" height="50" relative="1" as="geometry">
            <mxPoint x="390" y="262" as="sourcePoint" />
            <mxPoint x="440" y="212" as="targetPoint" />
          </mxGeometry>
        </mxCell>
        <mxCell id="G10Xkep8nLB2AmkVrxiF-511" value="" style="endArrow=none;html=1;rounded=0;exitX=1;exitY=0.5;exitDx=0;exitDy=0;fillColor=#ffe6cc;strokeColor=#d79b00;" edge="1" parent="G10Xkep8nLB2AmkVrxiF-490" source="G10Xkep8nLB2AmkVrxiF-497">
          <mxGeometry width="50" height="50" relative="1" as="geometry">
            <mxPoint x="590" y="92" as="sourcePoint" />
            <mxPoint x="600" y="57" as="targetPoint" />
          </mxGeometry>
        </mxCell>
        <mxCell id="G10Xkep8nLB2AmkVrxiF-512" value="" style="endArrow=none;html=1;rounded=0;exitX=1;exitY=0.5;exitDx=0;exitDy=0;" edge="1" parent="G10Xkep8nLB2AmkVrxiF-490">
          <mxGeometry width="50" height="50" relative="1" as="geometry">
            <mxPoint x="565" y="96.75999999999999" as="sourcePoint" />
            <mxPoint x="600" y="96.75999999999999" as="targetPoint" />
          </mxGeometry>
        </mxCell>
        <mxCell id="G10Xkep8nLB2AmkVrxiF-513" value="" style="endArrow=none;html=1;rounded=0;exitX=1;exitY=0.5;exitDx=0;exitDy=0;" edge="1" parent="G10Xkep8nLB2AmkVrxiF-490">
          <mxGeometry width="50" height="50" relative="1" as="geometry">
            <mxPoint x="565" y="136.76" as="sourcePoint" />
            <mxPoint x="600" y="136.76" as="targetPoint" />
          </mxGeometry>
        </mxCell>
        <mxCell id="G10Xkep8nLB2AmkVrxiF-514" value="" style="endArrow=none;html=1;rounded=0;exitX=1;exitY=0.5;exitDx=0;exitDy=0;fillColor=#ffe6cc;strokeColor=#d79b00;" edge="1" parent="G10Xkep8nLB2AmkVrxiF-490">
          <mxGeometry width="50" height="50" relative="1" as="geometry">
            <mxPoint x="565" y="176.76" as="sourcePoint" />
            <mxPoint x="600" y="176.76" as="targetPoint" />
          </mxGeometry>
        </mxCell>
        <mxCell id="G10Xkep8nLB2AmkVrxiF-515" value="" style="endArrow=none;html=1;rounded=0;exitX=1;exitY=0.5;exitDx=0;exitDy=0;" edge="1" parent="G10Xkep8nLB2AmkVrxiF-490">
          <mxGeometry width="50" height="50" relative="1" as="geometry">
            <mxPoint x="565" y="216.76" as="sourcePoint" />
            <mxPoint x="600" y="216.76" as="targetPoint" />
          </mxGeometry>
        </mxCell>
        <mxCell id="G10Xkep8nLB2AmkVrxiF-516" value="" style="endArrow=none;html=1;rounded=0;exitX=1;exitY=0.5;exitDx=0;exitDy=0;" edge="1" parent="G10Xkep8nLB2AmkVrxiF-490">
          <mxGeometry width="50" height="50" relative="1" as="geometry">
            <mxPoint x="565" y="256.76" as="sourcePoint" />
            <mxPoint x="600" y="256.76" as="targetPoint" />
          </mxGeometry>
        </mxCell>
        <mxCell id="G10Xkep8nLB2AmkVrxiF-517" value="" style="endArrow=none;html=1;rounded=0;exitX=1;exitY=0.5;exitDx=0;exitDy=0;" edge="1" parent="G10Xkep8nLB2AmkVrxiF-490">
          <mxGeometry width="50" height="50" relative="1" as="geometry">
            <mxPoint x="440" y="56.75999999999999" as="sourcePoint" />
            <mxPoint x="475" y="56.75999999999999" as="targetPoint" />
          </mxGeometry>
        </mxCell>
        <mxCell id="G10Xkep8nLB2AmkVrxiF-518" value="" style="endArrow=none;html=1;rounded=0;exitX=1;exitY=0.5;exitDx=0;exitDy=0;fillColor=#ffe6cc;strokeColor=#d79b00;" edge="1" parent="G10Xkep8nLB2AmkVrxiF-490">
          <mxGeometry width="50" height="50" relative="1" as="geometry">
            <mxPoint x="440" y="96.75999999999999" as="sourcePoint" />
            <mxPoint x="475" y="96.75999999999999" as="targetPoint" />
          </mxGeometry>
        </mxCell>
        <mxCell id="G10Xkep8nLB2AmkVrxiF-519" value="" style="endArrow=none;html=1;rounded=0;exitX=1;exitY=0.5;exitDx=0;exitDy=0;" edge="1" parent="G10Xkep8nLB2AmkVrxiF-490">
          <mxGeometry width="50" height="50" relative="1" as="geometry">
            <mxPoint x="440" y="136.76" as="sourcePoint" />
            <mxPoint x="475" y="136.76" as="targetPoint" />
          </mxGeometry>
        </mxCell>
        <mxCell id="G10Xkep8nLB2AmkVrxiF-520" value="" style="endArrow=none;html=1;rounded=0;exitX=1;exitY=0.5;exitDx=0;exitDy=0;" edge="1" parent="G10Xkep8nLB2AmkVrxiF-490">
          <mxGeometry width="50" height="50" relative="1" as="geometry">
            <mxPoint x="440" y="176.76" as="sourcePoint" />
            <mxPoint x="475" y="176.76" as="targetPoint" />
          </mxGeometry>
        </mxCell>
        <mxCell id="G10Xkep8nLB2AmkVrxiF-521" value="" style="endArrow=none;html=1;rounded=0;exitX=1;exitY=0.5;exitDx=0;exitDy=0;fillColor=#ffe6cc;strokeColor=#d79b00;" edge="1" parent="G10Xkep8nLB2AmkVrxiF-490">
          <mxGeometry width="50" height="50" relative="1" as="geometry">
            <mxPoint x="440" y="216.76" as="sourcePoint" />
            <mxPoint x="475" y="216.76" as="targetPoint" />
          </mxGeometry>
        </mxCell>
        <mxCell id="G10Xkep8nLB2AmkVrxiF-522" value="" style="endArrow=none;html=1;rounded=0;exitX=1;exitY=0.5;exitDx=0;exitDy=0;" edge="1" parent="G10Xkep8nLB2AmkVrxiF-490">
          <mxGeometry width="50" height="50" relative="1" as="geometry">
            <mxPoint x="440" y="256.76" as="sourcePoint" />
            <mxPoint x="475" y="256.76" as="targetPoint" />
          </mxGeometry>
        </mxCell>
        <mxCell id="G10Xkep8nLB2AmkVrxiF-523" value="" style="group" vertex="1" connectable="0" parent="G10Xkep8nLB2AmkVrxiF-490">
          <mxGeometry x="280" y="32" width="160" height="250" as="geometry" />
        </mxCell>
        <mxCell id="G10Xkep8nLB2AmkVrxiF-524" value="" style="rounded=0;whiteSpace=wrap;html=1;" vertex="1" parent="G10Xkep8nLB2AmkVrxiF-523">
          <mxGeometry x="40" width="80" height="250" as="geometry" />
        </mxCell>
        <mxCell id="G10Xkep8nLB2AmkVrxiF-525" value="" style="ellipse;whiteSpace=wrap;html=1;aspect=fixed;" vertex="1" parent="G10Xkep8nLB2AmkVrxiF-523">
          <mxGeometry x="115" y="100" width="10" height="10" as="geometry" />
        </mxCell>
        <mxCell id="G10Xkep8nLB2AmkVrxiF-526" value="" style="ellipse;whiteSpace=wrap;html=1;aspect=fixed;" vertex="1" parent="G10Xkep8nLB2AmkVrxiF-523">
          <mxGeometry x="115" y="140" width="10" height="10" as="geometry" />
        </mxCell>
        <mxCell id="G10Xkep8nLB2AmkVrxiF-527" value="" style="ellipse;whiteSpace=wrap;html=1;aspect=fixed;" vertex="1" parent="G10Xkep8nLB2AmkVrxiF-523">
          <mxGeometry x="115" y="180" width="10" height="10" as="geometry" />
        </mxCell>
        <mxCell id="G10Xkep8nLB2AmkVrxiF-528" value="" style="ellipse;whiteSpace=wrap;html=1;aspect=fixed;" vertex="1" parent="G10Xkep8nLB2AmkVrxiF-523">
          <mxGeometry x="115" y="60" width="10" height="10" as="geometry" />
        </mxCell>
        <mxCell id="G10Xkep8nLB2AmkVrxiF-529" value="" style="ellipse;whiteSpace=wrap;html=1;aspect=fixed;" vertex="1" parent="G10Xkep8nLB2AmkVrxiF-523">
          <mxGeometry x="115" y="220" width="10" height="10" as="geometry" />
        </mxCell>
        <mxCell id="G10Xkep8nLB2AmkVrxiF-530" value="" style="ellipse;whiteSpace=wrap;html=1;aspect=fixed;" vertex="1" parent="G10Xkep8nLB2AmkVrxiF-523">
          <mxGeometry x="115" y="20" width="10" height="10" as="geometry" />
        </mxCell>
        <mxCell id="G10Xkep8nLB2AmkVrxiF-531" value="" style="ellipse;whiteSpace=wrap;html=1;aspect=fixed;" vertex="1" parent="G10Xkep8nLB2AmkVrxiF-523">
          <mxGeometry x="35" y="100" width="10" height="10" as="geometry" />
        </mxCell>
        <mxCell id="G10Xkep8nLB2AmkVrxiF-532" value="" style="ellipse;whiteSpace=wrap;html=1;aspect=fixed;" vertex="1" parent="G10Xkep8nLB2AmkVrxiF-523">
          <mxGeometry x="35" y="140" width="10" height="10" as="geometry" />
        </mxCell>
        <mxCell id="G10Xkep8nLB2AmkVrxiF-533" value="" style="ellipse;whiteSpace=wrap;html=1;aspect=fixed;" vertex="1" parent="G10Xkep8nLB2AmkVrxiF-523">
          <mxGeometry x="35" y="180" width="10" height="10" as="geometry" />
        </mxCell>
        <mxCell id="G10Xkep8nLB2AmkVrxiF-534" value="" style="ellipse;whiteSpace=wrap;html=1;aspect=fixed;" vertex="1" parent="G10Xkep8nLB2AmkVrxiF-523">
          <mxGeometry x="35" y="60" width="10" height="10" as="geometry" />
        </mxCell>
        <mxCell id="G10Xkep8nLB2AmkVrxiF-535" value="" style="ellipse;whiteSpace=wrap;html=1;aspect=fixed;" vertex="1" parent="G10Xkep8nLB2AmkVrxiF-523">
          <mxGeometry x="35" y="220" width="10" height="10" as="geometry" />
        </mxCell>
        <mxCell id="G10Xkep8nLB2AmkVrxiF-536" value="" style="ellipse;whiteSpace=wrap;html=1;aspect=fixed;" vertex="1" parent="G10Xkep8nLB2AmkVrxiF-523">
          <mxGeometry x="35" y="20" width="10" height="10" as="geometry" />
        </mxCell>
        <mxCell id="G10Xkep8nLB2AmkVrxiF-537" value="" style="endArrow=none;html=1;rounded=0;exitX=1;exitY=0.5;exitDx=0;exitDy=0;" edge="1" parent="G10Xkep8nLB2AmkVrxiF-523" source="G10Xkep8nLB2AmkVrxiF-530">
          <mxGeometry width="50" height="50" relative="1" as="geometry">
            <mxPoint x="150" y="60" as="sourcePoint" />
            <mxPoint x="160" y="25" as="targetPoint" />
          </mxGeometry>
        </mxCell>
        <mxCell id="G10Xkep8nLB2AmkVrxiF-538" value="" style="endArrow=none;html=1;rounded=0;exitX=1;exitY=0.5;exitDx=0;exitDy=0;fillColor=#ffe6cc;strokeColor=#d79b00;" edge="1" parent="G10Xkep8nLB2AmkVrxiF-523">
          <mxGeometry width="50" height="50" relative="1" as="geometry">
            <mxPoint x="125" y="64.75999999999999" as="sourcePoint" />
            <mxPoint x="160" y="64.75999999999999" as="targetPoint" />
          </mxGeometry>
        </mxCell>
        <mxCell id="G10Xkep8nLB2AmkVrxiF-539" value="" style="endArrow=none;html=1;rounded=0;exitX=1;exitY=0.5;exitDx=0;exitDy=0;" edge="1" parent="G10Xkep8nLB2AmkVrxiF-523">
          <mxGeometry width="50" height="50" relative="1" as="geometry">
            <mxPoint x="125" y="104.75999999999999" as="sourcePoint" />
            <mxPoint x="160" y="104.75999999999999" as="targetPoint" />
          </mxGeometry>
        </mxCell>
        <mxCell id="G10Xkep8nLB2AmkVrxiF-540" value="" style="endArrow=none;html=1;rounded=0;exitX=1;exitY=0.5;exitDx=0;exitDy=0;" edge="1" parent="G10Xkep8nLB2AmkVrxiF-523">
          <mxGeometry width="50" height="50" relative="1" as="geometry">
            <mxPoint x="125" y="144.76" as="sourcePoint" />
            <mxPoint x="160" y="144.76" as="targetPoint" />
          </mxGeometry>
        </mxCell>
        <mxCell id="G10Xkep8nLB2AmkVrxiF-541" value="" style="endArrow=none;html=1;rounded=0;exitX=1;exitY=0.5;exitDx=0;exitDy=0;fillColor=#ffe6cc;strokeColor=#d79b00;" edge="1" parent="G10Xkep8nLB2AmkVrxiF-523">
          <mxGeometry width="50" height="50" relative="1" as="geometry">
            <mxPoint x="125" y="184.76" as="sourcePoint" />
            <mxPoint x="160" y="184.76" as="targetPoint" />
          </mxGeometry>
        </mxCell>
        <mxCell id="G10Xkep8nLB2AmkVrxiF-542" value="" style="endArrow=none;html=1;rounded=0;exitX=1;exitY=0.5;exitDx=0;exitDy=0;" edge="1" parent="G10Xkep8nLB2AmkVrxiF-523">
          <mxGeometry width="50" height="50" relative="1" as="geometry">
            <mxPoint x="125" y="224.76" as="sourcePoint" />
            <mxPoint x="160" y="224.76" as="targetPoint" />
          </mxGeometry>
        </mxCell>
        <mxCell id="G10Xkep8nLB2AmkVrxiF-543" value="" style="endArrow=none;html=1;rounded=0;exitX=1;exitY=0.5;exitDx=0;exitDy=0;" edge="1" parent="G10Xkep8nLB2AmkVrxiF-523">
          <mxGeometry width="50" height="50" relative="1" as="geometry">
            <mxPoint y="24.75999999999999" as="sourcePoint" />
            <mxPoint x="35" y="24.75999999999999" as="targetPoint" />
          </mxGeometry>
        </mxCell>
        <mxCell id="G10Xkep8nLB2AmkVrxiF-544" value="" style="endArrow=none;html=1;rounded=0;exitX=1;exitY=0.5;exitDx=0;exitDy=0;" edge="1" parent="G10Xkep8nLB2AmkVrxiF-523">
          <mxGeometry width="50" height="50" relative="1" as="geometry">
            <mxPoint y="64.75999999999999" as="sourcePoint" />
            <mxPoint x="35" y="64.75999999999999" as="targetPoint" />
          </mxGeometry>
        </mxCell>
        <mxCell id="G10Xkep8nLB2AmkVrxiF-545" value="" style="endArrow=none;html=1;rounded=0;exitX=1;exitY=0.5;exitDx=0;exitDy=0;" edge="1" parent="G10Xkep8nLB2AmkVrxiF-523">
          <mxGeometry width="50" height="50" relative="1" as="geometry">
            <mxPoint y="104.75999999999999" as="sourcePoint" />
            <mxPoint x="35" y="104.75999999999999" as="targetPoint" />
          </mxGeometry>
        </mxCell>
        <mxCell id="G10Xkep8nLB2AmkVrxiF-546" value="" style="endArrow=none;html=1;rounded=0;exitX=1;exitY=0.5;exitDx=0;exitDy=0;fillColor=#ffe6cc;strokeColor=#d79b00;" edge="1" parent="G10Xkep8nLB2AmkVrxiF-523">
          <mxGeometry width="50" height="50" relative="1" as="geometry">
            <mxPoint y="144.76" as="sourcePoint" />
            <mxPoint x="35" y="144.76" as="targetPoint" />
          </mxGeometry>
        </mxCell>
        <mxCell id="G10Xkep8nLB2AmkVrxiF-547" value="" style="endArrow=none;html=1;rounded=0;exitX=1;exitY=0.5;exitDx=0;exitDy=0;" edge="1" parent="G10Xkep8nLB2AmkVrxiF-523">
          <mxGeometry width="50" height="50" relative="1" as="geometry">
            <mxPoint y="184.76" as="sourcePoint" />
            <mxPoint x="35" y="184.76" as="targetPoint" />
          </mxGeometry>
        </mxCell>
        <mxCell id="G10Xkep8nLB2AmkVrxiF-548" value="" style="endArrow=none;html=1;rounded=0;exitX=1;exitY=0.5;exitDx=0;exitDy=0;fillColor=#ffe6cc;strokeColor=#d79b00;" edge="1" parent="G10Xkep8nLB2AmkVrxiF-523">
          <mxGeometry width="50" height="50" relative="1" as="geometry">
            <mxPoint y="224.76" as="sourcePoint" />
            <mxPoint x="35" y="224.76" as="targetPoint" />
          </mxGeometry>
        </mxCell>
        <mxCell id="G10Xkep8nLB2AmkVrxiF-549" value="" style="endArrow=none;html=1;rounded=0;entryX=0;entryY=0.5;entryDx=0;entryDy=0;exitX=1;exitY=0.5;exitDx=0;exitDy=0;" edge="1" parent="G10Xkep8nLB2AmkVrxiF-523" source="G10Xkep8nLB2AmkVrxiF-536" target="G10Xkep8nLB2AmkVrxiF-530">
          <mxGeometry width="50" height="50" relative="1" as="geometry">
            <mxPoint x="60" y="70" as="sourcePoint" />
            <mxPoint x="110" y="20" as="targetPoint" />
          </mxGeometry>
        </mxCell>
        <mxCell id="G10Xkep8nLB2AmkVrxiF-550" value="" style="endArrow=none;html=1;rounded=0;exitX=1;exitY=0.5;exitDx=0;exitDy=0;entryX=0;entryY=0.5;entryDx=0;entryDy=0;fillColor=#ffe6cc;strokeColor=#d79b00;" edge="1" parent="G10Xkep8nLB2AmkVrxiF-523" source="G10Xkep8nLB2AmkVrxiF-535" target="G10Xkep8nLB2AmkVrxiF-528">
          <mxGeometry width="50" height="50" relative="1" as="geometry">
            <mxPoint x="50" y="220" as="sourcePoint" />
            <mxPoint x="100" y="170" as="targetPoint" />
          </mxGeometry>
        </mxCell>
        <mxCell id="G10Xkep8nLB2AmkVrxiF-551" value="" style="endArrow=none;html=1;rounded=0;entryX=0;entryY=0.5;entryDx=0;entryDy=0;exitX=1;exitY=0.5;exitDx=0;exitDy=0;fillColor=#ffe6cc;strokeColor=#d79b00;" edge="1" parent="G10Xkep8nLB2AmkVrxiF-523" source="G10Xkep8nLB2AmkVrxiF-532" target="G10Xkep8nLB2AmkVrxiF-527">
          <mxGeometry width="50" height="50" relative="1" as="geometry">
            <mxPoint x="90" y="320" as="sourcePoint" />
            <mxPoint x="140" y="270" as="targetPoint" />
          </mxGeometry>
        </mxCell>
        <mxCell id="G10Xkep8nLB2AmkVrxiF-552" value="" style="endArrow=none;html=1;rounded=0;entryX=0;entryY=0.5;entryDx=0;entryDy=0;exitX=1;exitY=0.5;exitDx=0;exitDy=0;" edge="1" parent="G10Xkep8nLB2AmkVrxiF-523" source="G10Xkep8nLB2AmkVrxiF-531" target="G10Xkep8nLB2AmkVrxiF-529">
          <mxGeometry width="50" height="50" relative="1" as="geometry">
            <mxPoint x="60" y="310" as="sourcePoint" />
            <mxPoint x="110" y="260" as="targetPoint" />
          </mxGeometry>
        </mxCell>
        <mxCell id="G10Xkep8nLB2AmkVrxiF-553" value="" style="endArrow=none;html=1;rounded=0;entryX=0;entryY=0.5;entryDx=0;entryDy=0;exitX=1;exitY=0.5;exitDx=0;exitDy=0;" edge="1" parent="G10Xkep8nLB2AmkVrxiF-523" source="G10Xkep8nLB2AmkVrxiF-533" target="G10Xkep8nLB2AmkVrxiF-526">
          <mxGeometry width="50" height="50" relative="1" as="geometry">
            <mxPoint x="60" y="180" as="sourcePoint" />
            <mxPoint x="110" y="130" as="targetPoint" />
          </mxGeometry>
        </mxCell>
        <mxCell id="G10Xkep8nLB2AmkVrxiF-554" value="" style="endArrow=none;html=1;rounded=0;entryX=0;entryY=0.5;entryDx=0;entryDy=0;exitX=1;exitY=0.5;exitDx=0;exitDy=0;" edge="1" parent="G10Xkep8nLB2AmkVrxiF-523" source="G10Xkep8nLB2AmkVrxiF-534" target="G10Xkep8nLB2AmkVrxiF-525">
          <mxGeometry width="50" height="50" relative="1" as="geometry">
            <mxPoint x="10" y="210" as="sourcePoint" />
            <mxPoint x="60" y="160" as="targetPoint" />
          </mxGeometry>
        </mxCell>
        <mxCell id="G10Xkep8nLB2AmkVrxiF-555" value="" style="group" vertex="1" connectable="0" parent="G10Xkep8nLB2AmkVrxiF-490">
          <mxGeometry x="120" y="32" width="160" height="250" as="geometry" />
        </mxCell>
        <mxCell id="G10Xkep8nLB2AmkVrxiF-556" value="" style="rounded=0;whiteSpace=wrap;html=1;" vertex="1" parent="G10Xkep8nLB2AmkVrxiF-555">
          <mxGeometry x="40" width="80" height="250" as="geometry" />
        </mxCell>
        <mxCell id="G10Xkep8nLB2AmkVrxiF-557" value="" style="ellipse;whiteSpace=wrap;html=1;aspect=fixed;" vertex="1" parent="G10Xkep8nLB2AmkVrxiF-555">
          <mxGeometry x="115" y="100" width="10" height="10" as="geometry" />
        </mxCell>
        <mxCell id="G10Xkep8nLB2AmkVrxiF-558" value="" style="ellipse;whiteSpace=wrap;html=1;aspect=fixed;" vertex="1" parent="G10Xkep8nLB2AmkVrxiF-555">
          <mxGeometry x="115" y="140" width="10" height="10" as="geometry" />
        </mxCell>
        <mxCell id="G10Xkep8nLB2AmkVrxiF-559" value="" style="ellipse;whiteSpace=wrap;html=1;aspect=fixed;" vertex="1" parent="G10Xkep8nLB2AmkVrxiF-555">
          <mxGeometry x="115" y="180" width="10" height="10" as="geometry" />
        </mxCell>
        <mxCell id="G10Xkep8nLB2AmkVrxiF-560" value="" style="ellipse;whiteSpace=wrap;html=1;aspect=fixed;" vertex="1" parent="G10Xkep8nLB2AmkVrxiF-555">
          <mxGeometry x="115" y="60" width="10" height="10" as="geometry" />
        </mxCell>
        <mxCell id="G10Xkep8nLB2AmkVrxiF-561" value="" style="ellipse;whiteSpace=wrap;html=1;aspect=fixed;" vertex="1" parent="G10Xkep8nLB2AmkVrxiF-555">
          <mxGeometry x="115" y="220" width="10" height="10" as="geometry" />
        </mxCell>
        <mxCell id="G10Xkep8nLB2AmkVrxiF-562" value="" style="ellipse;whiteSpace=wrap;html=1;aspect=fixed;" vertex="1" parent="G10Xkep8nLB2AmkVrxiF-555">
          <mxGeometry x="115" y="20" width="10" height="10" as="geometry" />
        </mxCell>
        <mxCell id="G10Xkep8nLB2AmkVrxiF-563" value="" style="ellipse;whiteSpace=wrap;html=1;aspect=fixed;" vertex="1" parent="G10Xkep8nLB2AmkVrxiF-555">
          <mxGeometry x="35" y="100" width="10" height="10" as="geometry" />
        </mxCell>
        <mxCell id="G10Xkep8nLB2AmkVrxiF-564" value="" style="ellipse;whiteSpace=wrap;html=1;aspect=fixed;" vertex="1" parent="G10Xkep8nLB2AmkVrxiF-555">
          <mxGeometry x="35" y="140" width="10" height="10" as="geometry" />
        </mxCell>
        <mxCell id="G10Xkep8nLB2AmkVrxiF-565" value="" style="ellipse;whiteSpace=wrap;html=1;aspect=fixed;" vertex="1" parent="G10Xkep8nLB2AmkVrxiF-555">
          <mxGeometry x="35" y="180" width="10" height="10" as="geometry" />
        </mxCell>
        <mxCell id="G10Xkep8nLB2AmkVrxiF-566" value="" style="ellipse;whiteSpace=wrap;html=1;aspect=fixed;" vertex="1" parent="G10Xkep8nLB2AmkVrxiF-555">
          <mxGeometry x="35" y="60" width="10" height="10" as="geometry" />
        </mxCell>
        <mxCell id="G10Xkep8nLB2AmkVrxiF-567" value="" style="ellipse;whiteSpace=wrap;html=1;aspect=fixed;" vertex="1" parent="G10Xkep8nLB2AmkVrxiF-555">
          <mxGeometry x="35" y="220" width="10" height="10" as="geometry" />
        </mxCell>
        <mxCell id="G10Xkep8nLB2AmkVrxiF-568" value="" style="ellipse;whiteSpace=wrap;html=1;aspect=fixed;" vertex="1" parent="G10Xkep8nLB2AmkVrxiF-555">
          <mxGeometry x="35" y="20" width="10" height="10" as="geometry" />
        </mxCell>
        <mxCell id="G10Xkep8nLB2AmkVrxiF-569" value="" style="endArrow=none;html=1;rounded=0;exitX=1;exitY=0.5;exitDx=0;exitDy=0;" edge="1" parent="G10Xkep8nLB2AmkVrxiF-555" source="G10Xkep8nLB2AmkVrxiF-562">
          <mxGeometry width="50" height="50" relative="1" as="geometry">
            <mxPoint x="150" y="60" as="sourcePoint" />
            <mxPoint x="160" y="25" as="targetPoint" />
          </mxGeometry>
        </mxCell>
        <mxCell id="G10Xkep8nLB2AmkVrxiF-570" value="" style="endArrow=none;html=1;rounded=0;exitX=1;exitY=0.5;exitDx=0;exitDy=0;" edge="1" parent="G10Xkep8nLB2AmkVrxiF-555">
          <mxGeometry width="50" height="50" relative="1" as="geometry">
            <mxPoint x="125" y="64.75999999999999" as="sourcePoint" />
            <mxPoint x="160" y="64.75999999999999" as="targetPoint" />
          </mxGeometry>
        </mxCell>
        <mxCell id="G10Xkep8nLB2AmkVrxiF-571" value="" style="endArrow=none;html=1;rounded=0;exitX=1;exitY=0.5;exitDx=0;exitDy=0;" edge="1" parent="G10Xkep8nLB2AmkVrxiF-555">
          <mxGeometry width="50" height="50" relative="1" as="geometry">
            <mxPoint x="125" y="104.75999999999999" as="sourcePoint" />
            <mxPoint x="160" y="104.75999999999999" as="targetPoint" />
          </mxGeometry>
        </mxCell>
        <mxCell id="G10Xkep8nLB2AmkVrxiF-572" value="" style="endArrow=none;html=1;rounded=0;exitX=1;exitY=0.5;exitDx=0;exitDy=0;fillColor=#ffe6cc;strokeColor=#d79b00;" edge="1" parent="G10Xkep8nLB2AmkVrxiF-555">
          <mxGeometry width="50" height="50" relative="1" as="geometry">
            <mxPoint x="125" y="144.76" as="sourcePoint" />
            <mxPoint x="160" y="144.76" as="targetPoint" />
          </mxGeometry>
        </mxCell>
        <mxCell id="G10Xkep8nLB2AmkVrxiF-573" value="" style="endArrow=none;html=1;rounded=0;exitX=1;exitY=0.5;exitDx=0;exitDy=0;" edge="1" parent="G10Xkep8nLB2AmkVrxiF-555">
          <mxGeometry width="50" height="50" relative="1" as="geometry">
            <mxPoint x="125" y="184.76" as="sourcePoint" />
            <mxPoint x="160" y="184.76" as="targetPoint" />
          </mxGeometry>
        </mxCell>
        <mxCell id="G10Xkep8nLB2AmkVrxiF-574" value="" style="endArrow=none;html=1;rounded=0;exitX=1;exitY=0.5;exitDx=0;exitDy=0;fillColor=#ffe6cc;strokeColor=#d79b00;" edge="1" parent="G10Xkep8nLB2AmkVrxiF-555">
          <mxGeometry width="50" height="50" relative="1" as="geometry">
            <mxPoint x="125" y="224.76" as="sourcePoint" />
            <mxPoint x="160" y="224.76" as="targetPoint" />
          </mxGeometry>
        </mxCell>
        <mxCell id="G10Xkep8nLB2AmkVrxiF-575" value="" style="endArrow=none;html=1;rounded=0;exitX=1;exitY=0.5;exitDx=0;exitDy=0;" edge="1" parent="G10Xkep8nLB2AmkVrxiF-555">
          <mxGeometry width="50" height="50" relative="1" as="geometry">
            <mxPoint y="24.75999999999999" as="sourcePoint" />
            <mxPoint x="35" y="24.75999999999999" as="targetPoint" />
          </mxGeometry>
        </mxCell>
        <mxCell id="G10Xkep8nLB2AmkVrxiF-576" value="" style="endArrow=none;html=1;rounded=0;exitX=1;exitY=0.5;exitDx=0;exitDy=0;fillColor=#ffe6cc;strokeColor=#d79b00;" edge="1" parent="G10Xkep8nLB2AmkVrxiF-555">
          <mxGeometry width="50" height="50" relative="1" as="geometry">
            <mxPoint y="64.75999999999999" as="sourcePoint" />
            <mxPoint x="35" y="64.75999999999999" as="targetPoint" />
          </mxGeometry>
        </mxCell>
        <mxCell id="G10Xkep8nLB2AmkVrxiF-577" value="" style="endArrow=none;html=1;rounded=0;exitX=1;exitY=0.5;exitDx=0;exitDy=0;" edge="1" parent="G10Xkep8nLB2AmkVrxiF-555">
          <mxGeometry width="50" height="50" relative="1" as="geometry">
            <mxPoint y="104.75999999999999" as="sourcePoint" />
            <mxPoint x="35" y="104.75999999999999" as="targetPoint" />
          </mxGeometry>
        </mxCell>
        <mxCell id="G10Xkep8nLB2AmkVrxiF-578" value="" style="endArrow=none;html=1;rounded=0;exitX=1;exitY=0.5;exitDx=0;exitDy=0;" edge="1" parent="G10Xkep8nLB2AmkVrxiF-555">
          <mxGeometry width="50" height="50" relative="1" as="geometry">
            <mxPoint y="144.76" as="sourcePoint" />
            <mxPoint x="35" y="144.76" as="targetPoint" />
          </mxGeometry>
        </mxCell>
        <mxCell id="G10Xkep8nLB2AmkVrxiF-579" value="" style="endArrow=none;html=1;rounded=0;exitX=1;exitY=0.5;exitDx=0;exitDy=0;fillColor=#ffe6cc;strokeColor=#d79b00;" edge="1" parent="G10Xkep8nLB2AmkVrxiF-555">
          <mxGeometry width="50" height="50" relative="1" as="geometry">
            <mxPoint y="184.76" as="sourcePoint" />
            <mxPoint x="35" y="184.76" as="targetPoint" />
          </mxGeometry>
        </mxCell>
        <mxCell id="G10Xkep8nLB2AmkVrxiF-580" value="" style="endArrow=none;html=1;rounded=0;exitX=1;exitY=0.5;exitDx=0;exitDy=0;" edge="1" parent="G10Xkep8nLB2AmkVrxiF-555">
          <mxGeometry width="50" height="50" relative="1" as="geometry">
            <mxPoint y="224.76" as="sourcePoint" />
            <mxPoint x="35" y="224.76" as="targetPoint" />
          </mxGeometry>
        </mxCell>
        <mxCell id="G10Xkep8nLB2AmkVrxiF-581" value="" style="endArrow=none;html=1;rounded=0;exitX=1;exitY=0.5;exitDx=0;exitDy=0;entryX=0;entryY=0.5;entryDx=0;entryDy=0;" edge="1" parent="G10Xkep8nLB2AmkVrxiF-555" source="G10Xkep8nLB2AmkVrxiF-563" target="G10Xkep8nLB2AmkVrxiF-562">
          <mxGeometry width="50" height="50" relative="1" as="geometry">
            <mxPoint x="120" y="100" as="sourcePoint" />
            <mxPoint x="170" y="50" as="targetPoint" />
          </mxGeometry>
        </mxCell>
        <mxCell id="G10Xkep8nLB2AmkVrxiF-582" value="" style="endArrow=none;html=1;rounded=0;entryX=0;entryY=0.5;entryDx=0;entryDy=0;exitX=1;exitY=0.5;exitDx=0;exitDy=0;" edge="1" parent="G10Xkep8nLB2AmkVrxiF-555" source="G10Xkep8nLB2AmkVrxiF-564" target="G10Xkep8nLB2AmkVrxiF-560">
          <mxGeometry width="50" height="50" relative="1" as="geometry">
            <mxPoint x="70" y="150" as="sourcePoint" />
            <mxPoint x="120" y="100" as="targetPoint" />
          </mxGeometry>
        </mxCell>
        <mxCell id="G10Xkep8nLB2AmkVrxiF-583" value="" style="endArrow=none;html=1;rounded=0;entryX=1;entryY=0.5;entryDx=0;entryDy=0;exitX=0;exitY=0.5;exitDx=0;exitDy=0;fillColor=#ffe6cc;strokeColor=#d79b00;" edge="1" parent="G10Xkep8nLB2AmkVrxiF-555" source="G10Xkep8nLB2AmkVrxiF-558" target="G10Xkep8nLB2AmkVrxiF-565">
          <mxGeometry width="50" height="50" relative="1" as="geometry">
            <mxPoint x="100" y="210" as="sourcePoint" />
            <mxPoint x="150" y="160" as="targetPoint" />
          </mxGeometry>
        </mxCell>
        <mxCell id="G10Xkep8nLB2AmkVrxiF-584" value="" style="endArrow=none;html=1;rounded=0;entryX=0;entryY=0.5;entryDx=0;entryDy=0;exitX=1;exitY=0.5;exitDx=0;exitDy=0;" edge="1" parent="G10Xkep8nLB2AmkVrxiF-555" source="G10Xkep8nLB2AmkVrxiF-568" target="G10Xkep8nLB2AmkVrxiF-557">
          <mxGeometry width="50" height="50" relative="1" as="geometry">
            <mxPoint x="70" y="160" as="sourcePoint" />
            <mxPoint x="120" y="110" as="targetPoint" />
          </mxGeometry>
        </mxCell>
        <mxCell id="G10Xkep8nLB2AmkVrxiF-585" value="" style="endArrow=none;html=1;rounded=0;entryX=0;entryY=0.5;entryDx=0;entryDy=0;exitX=1;exitY=0.5;exitDx=0;exitDy=0;" edge="1" parent="G10Xkep8nLB2AmkVrxiF-555" source="G10Xkep8nLB2AmkVrxiF-567" target="G10Xkep8nLB2AmkVrxiF-559">
          <mxGeometry width="50" height="50" relative="1" as="geometry">
            <mxPoint x="120" y="230" as="sourcePoint" />
            <mxPoint x="170" y="180" as="targetPoint" />
          </mxGeometry>
        </mxCell>
        <mxCell id="G10Xkep8nLB2AmkVrxiF-586" value="" style="endArrow=none;html=1;rounded=0;entryX=0;entryY=0.5;entryDx=0;entryDy=0;exitX=1;exitY=0.5;exitDx=0;exitDy=0;fillColor=#ffe6cc;strokeColor=#d79b00;" edge="1" parent="G10Xkep8nLB2AmkVrxiF-555" source="G10Xkep8nLB2AmkVrxiF-566" target="G10Xkep8nLB2AmkVrxiF-561">
          <mxGeometry width="50" height="50" relative="1" as="geometry">
            <mxPoint x="70" y="290" as="sourcePoint" />
            <mxPoint x="120" y="240" as="targetPoint" />
          </mxGeometry>
        </mxCell>
        <mxCell id="G10Xkep8nLB2AmkVrxiF-587" value="" style="rounded=0;whiteSpace=wrap;html=1;" vertex="1" parent="G10Xkep8nLB2AmkVrxiF-490">
          <mxGeometry y="32" width="80" height="250" as="geometry" />
        </mxCell>
        <mxCell id="G10Xkep8nLB2AmkVrxiF-588" value="" style="ellipse;whiteSpace=wrap;html=1;aspect=fixed;" vertex="1" parent="G10Xkep8nLB2AmkVrxiF-490">
          <mxGeometry x="75" y="132" width="10" height="10" as="geometry" />
        </mxCell>
        <mxCell id="G10Xkep8nLB2AmkVrxiF-589" value="" style="ellipse;whiteSpace=wrap;html=1;aspect=fixed;" vertex="1" parent="G10Xkep8nLB2AmkVrxiF-490">
          <mxGeometry x="75" y="172" width="10" height="10" as="geometry" />
        </mxCell>
        <mxCell id="G10Xkep8nLB2AmkVrxiF-590" style="edgeStyle=orthogonalEdgeStyle;rounded=0;orthogonalLoop=1;jettySize=auto;html=1;exitX=0;exitY=0.5;exitDx=0;exitDy=0;entryX=0;entryY=0.5;entryDx=0;entryDy=0;endArrow=none;endFill=0;" edge="1" parent="G10Xkep8nLB2AmkVrxiF-490" source="G10Xkep8nLB2AmkVrxiF-588" target="G10Xkep8nLB2AmkVrxiF-589">
          <mxGeometry relative="1" as="geometry" />
        </mxCell>
        <mxCell id="G10Xkep8nLB2AmkVrxiF-591" value="" style="ellipse;whiteSpace=wrap;html=1;aspect=fixed;" vertex="1" parent="G10Xkep8nLB2AmkVrxiF-490">
          <mxGeometry x="75" y="212" width="10" height="10" as="geometry" />
        </mxCell>
        <mxCell id="G10Xkep8nLB2AmkVrxiF-592" style="edgeStyle=orthogonalEdgeStyle;rounded=0;orthogonalLoop=1;jettySize=auto;html=1;exitX=0;exitY=0.5;exitDx=0;exitDy=0;entryX=0;entryY=0.5;entryDx=0;entryDy=0;endArrow=none;endFill=0;fillColor=#ffe6cc;strokeColor=#d79b00;" edge="1" parent="G10Xkep8nLB2AmkVrxiF-490" source="G10Xkep8nLB2AmkVrxiF-593" target="G10Xkep8nLB2AmkVrxiF-591">
          <mxGeometry relative="1" as="geometry">
            <Array as="points">
              <mxPoint x="40" y="97" />
              <mxPoint x="40" y="217" />
            </Array>
          </mxGeometry>
        </mxCell>
        <mxCell id="G10Xkep8nLB2AmkVrxiF-593" value="" style="ellipse;whiteSpace=wrap;html=1;aspect=fixed;" vertex="1" parent="G10Xkep8nLB2AmkVrxiF-490">
          <mxGeometry x="75" y="92" width="10" height="10" as="geometry" />
        </mxCell>
        <mxCell id="G10Xkep8nLB2AmkVrxiF-594" value="" style="ellipse;whiteSpace=wrap;html=1;aspect=fixed;" vertex="1" parent="G10Xkep8nLB2AmkVrxiF-490">
          <mxGeometry x="75" y="252" width="10" height="10" as="geometry" />
        </mxCell>
        <mxCell id="G10Xkep8nLB2AmkVrxiF-595" value="" style="ellipse;whiteSpace=wrap;html=1;aspect=fixed;" vertex="1" parent="G10Xkep8nLB2AmkVrxiF-490">
          <mxGeometry x="75" y="52" width="10" height="10" as="geometry" />
        </mxCell>
        <mxCell id="G10Xkep8nLB2AmkVrxiF-596" style="edgeStyle=orthogonalEdgeStyle;rounded=0;orthogonalLoop=1;jettySize=auto;html=1;exitX=0;exitY=0.5;exitDx=0;exitDy=0;entryX=0;entryY=0.5;entryDx=0;entryDy=0;endArrow=none;endFill=0;" edge="1" parent="G10Xkep8nLB2AmkVrxiF-490" source="G10Xkep8nLB2AmkVrxiF-594" target="G10Xkep8nLB2AmkVrxiF-595">
          <mxGeometry relative="1" as="geometry">
            <Array as="points">
              <mxPoint x="20" y="257" />
              <mxPoint x="20" y="57" />
            </Array>
          </mxGeometry>
        </mxCell>
        <mxCell id="G10Xkep8nLB2AmkVrxiF-597" value="" style="endArrow=none;html=1;rounded=0;exitX=1;exitY=0.5;exitDx=0;exitDy=0;" edge="1" parent="G10Xkep8nLB2AmkVrxiF-490">
          <mxGeometry width="50" height="50" relative="1" as="geometry">
            <mxPoint x="85" y="56.799999999999955" as="sourcePoint" />
            <mxPoint x="120" y="56.799999999999955" as="targetPoint" />
          </mxGeometry>
        </mxCell>
        <mxCell id="G10Xkep8nLB2AmkVrxiF-598" value="" style="endArrow=none;html=1;rounded=0;exitX=1;exitY=0.5;exitDx=0;exitDy=0;" edge="1" parent="G10Xkep8nLB2AmkVrxiF-490">
          <mxGeometry width="50" height="50" relative="1" as="geometry">
            <mxPoint x="85" y="56.799999999999955" as="sourcePoint" />
            <mxPoint x="120" y="56.799999999999955" as="targetPoint" />
          </mxGeometry>
        </mxCell>
        <mxCell id="G10Xkep8nLB2AmkVrxiF-599" value="" style="endArrow=none;html=1;rounded=0;exitX=1;exitY=0.5;exitDx=0;exitDy=0;fillColor=#ffe6cc;strokeColor=#d79b00;" edge="1" parent="G10Xkep8nLB2AmkVrxiF-490">
          <mxGeometry width="50" height="50" relative="1" as="geometry">
            <mxPoint x="85" y="96.82999999999993" as="sourcePoint" />
            <mxPoint x="120" y="96.82999999999993" as="targetPoint" />
          </mxGeometry>
        </mxCell>
        <mxCell id="G10Xkep8nLB2AmkVrxiF-600" value="" style="endArrow=none;html=1;rounded=0;exitX=1;exitY=0.5;exitDx=0;exitDy=0;" edge="1" parent="G10Xkep8nLB2AmkVrxiF-490">
          <mxGeometry width="50" height="50" relative="1" as="geometry">
            <mxPoint x="85" y="136.82999999999993" as="sourcePoint" />
            <mxPoint x="120" y="136.82999999999993" as="targetPoint" />
          </mxGeometry>
        </mxCell>
        <mxCell id="G10Xkep8nLB2AmkVrxiF-601" value="" style="endArrow=none;html=1;rounded=0;exitX=1;exitY=0.5;exitDx=0;exitDy=0;" edge="1" parent="G10Xkep8nLB2AmkVrxiF-490">
          <mxGeometry width="50" height="50" relative="1" as="geometry">
            <mxPoint x="85" y="176.82999999999993" as="sourcePoint" />
            <mxPoint x="120" y="176.82999999999993" as="targetPoint" />
          </mxGeometry>
        </mxCell>
        <mxCell id="G10Xkep8nLB2AmkVrxiF-602" value="" style="endArrow=none;html=1;rounded=0;exitX=1;exitY=0.5;exitDx=0;exitDy=0;fillColor=#ffe6cc;strokeColor=#d79b00;" edge="1" parent="G10Xkep8nLB2AmkVrxiF-490">
          <mxGeometry width="50" height="50" relative="1" as="geometry">
            <mxPoint x="85" y="216.82999999999993" as="sourcePoint" />
            <mxPoint x="120" y="216.82999999999993" as="targetPoint" />
          </mxGeometry>
        </mxCell>
        <mxCell id="G10Xkep8nLB2AmkVrxiF-603" value="" style="endArrow=none;html=1;rounded=0;exitX=1;exitY=0.5;exitDx=0;exitDy=0;" edge="1" parent="G10Xkep8nLB2AmkVrxiF-490">
          <mxGeometry width="50" height="50" relative="1" as="geometry">
            <mxPoint x="85" y="256.8299999999999" as="sourcePoint" />
            <mxPoint x="120" y="256.8299999999999" as="targetPoint" />
          </mxGeometry>
        </mxCell>
        <mxCell id="G10Xkep8nLB2AmkVrxiF-606" value="" style="group" vertex="1" connectable="0" parent="G10Xkep8nLB2AmkVrxiF-490">
          <mxGeometry x="600" y="32" width="160" height="250" as="geometry" />
        </mxCell>
        <mxCell id="G10Xkep8nLB2AmkVrxiF-607" value="" style="rounded=0;whiteSpace=wrap;html=1;" vertex="1" parent="G10Xkep8nLB2AmkVrxiF-606">
          <mxGeometry x="40" width="80" height="250" as="geometry" />
        </mxCell>
        <mxCell id="G10Xkep8nLB2AmkVrxiF-608" value="" style="ellipse;whiteSpace=wrap;html=1;aspect=fixed;" vertex="1" parent="G10Xkep8nLB2AmkVrxiF-606">
          <mxGeometry x="115" y="100" width="10" height="10" as="geometry" />
        </mxCell>
        <mxCell id="G10Xkep8nLB2AmkVrxiF-609" value="" style="ellipse;whiteSpace=wrap;html=1;aspect=fixed;" vertex="1" parent="G10Xkep8nLB2AmkVrxiF-606">
          <mxGeometry x="115" y="140" width="10" height="10" as="geometry" />
        </mxCell>
        <mxCell id="G10Xkep8nLB2AmkVrxiF-610" value="" style="ellipse;whiteSpace=wrap;html=1;aspect=fixed;" vertex="1" parent="G10Xkep8nLB2AmkVrxiF-606">
          <mxGeometry x="115" y="180" width="10" height="10" as="geometry" />
        </mxCell>
        <mxCell id="G10Xkep8nLB2AmkVrxiF-611" value="" style="ellipse;whiteSpace=wrap;html=1;aspect=fixed;" vertex="1" parent="G10Xkep8nLB2AmkVrxiF-606">
          <mxGeometry x="115" y="60" width="10" height="10" as="geometry" />
        </mxCell>
        <mxCell id="G10Xkep8nLB2AmkVrxiF-612" value="" style="ellipse;whiteSpace=wrap;html=1;aspect=fixed;" vertex="1" parent="G10Xkep8nLB2AmkVrxiF-606">
          <mxGeometry x="115" y="220" width="10" height="10" as="geometry" />
        </mxCell>
        <mxCell id="G10Xkep8nLB2AmkVrxiF-613" value="" style="ellipse;whiteSpace=wrap;html=1;aspect=fixed;" vertex="1" parent="G10Xkep8nLB2AmkVrxiF-606">
          <mxGeometry x="115" y="20" width="10" height="10" as="geometry" />
        </mxCell>
        <mxCell id="G10Xkep8nLB2AmkVrxiF-614" value="" style="ellipse;whiteSpace=wrap;html=1;aspect=fixed;" vertex="1" parent="G10Xkep8nLB2AmkVrxiF-606">
          <mxGeometry x="35" y="100" width="10" height="10" as="geometry" />
        </mxCell>
        <mxCell id="G10Xkep8nLB2AmkVrxiF-615" value="" style="ellipse;whiteSpace=wrap;html=1;aspect=fixed;" vertex="1" parent="G10Xkep8nLB2AmkVrxiF-606">
          <mxGeometry x="35" y="140" width="10" height="10" as="geometry" />
        </mxCell>
        <mxCell id="G10Xkep8nLB2AmkVrxiF-616" value="" style="ellipse;whiteSpace=wrap;html=1;aspect=fixed;" vertex="1" parent="G10Xkep8nLB2AmkVrxiF-606">
          <mxGeometry x="35" y="180" width="10" height="10" as="geometry" />
        </mxCell>
        <mxCell id="G10Xkep8nLB2AmkVrxiF-617" value="" style="ellipse;whiteSpace=wrap;html=1;aspect=fixed;" vertex="1" parent="G10Xkep8nLB2AmkVrxiF-606">
          <mxGeometry x="35" y="60" width="10" height="10" as="geometry" />
        </mxCell>
        <mxCell id="G10Xkep8nLB2AmkVrxiF-618" value="" style="ellipse;whiteSpace=wrap;html=1;aspect=fixed;" vertex="1" parent="G10Xkep8nLB2AmkVrxiF-606">
          <mxGeometry x="35" y="220" width="10" height="10" as="geometry" />
        </mxCell>
        <mxCell id="G10Xkep8nLB2AmkVrxiF-619" value="" style="ellipse;whiteSpace=wrap;html=1;aspect=fixed;" vertex="1" parent="G10Xkep8nLB2AmkVrxiF-606">
          <mxGeometry x="35" y="20" width="10" height="10" as="geometry" />
        </mxCell>
        <mxCell id="G10Xkep8nLB2AmkVrxiF-620" value="" style="endArrow=none;html=1;rounded=0;exitX=1;exitY=0.5;exitDx=0;exitDy=0;fillColor=#ffe6cc;strokeColor=#d79b00;" edge="1" parent="G10Xkep8nLB2AmkVrxiF-606" source="G10Xkep8nLB2AmkVrxiF-613">
          <mxGeometry width="50" height="50" relative="1" as="geometry">
            <mxPoint x="150" y="60" as="sourcePoint" />
            <mxPoint x="160" y="25" as="targetPoint" />
          </mxGeometry>
        </mxCell>
        <mxCell id="G10Xkep8nLB2AmkVrxiF-621" value="" style="endArrow=none;html=1;rounded=0;exitX=1;exitY=0.5;exitDx=0;exitDy=0;" edge="1" parent="G10Xkep8nLB2AmkVrxiF-606">
          <mxGeometry width="50" height="50" relative="1" as="geometry">
            <mxPoint x="125" y="64.75999999999999" as="sourcePoint" />
            <mxPoint x="160" y="64.75999999999999" as="targetPoint" />
          </mxGeometry>
        </mxCell>
        <mxCell id="G10Xkep8nLB2AmkVrxiF-622" value="" style="endArrow=none;html=1;rounded=0;exitX=1;exitY=0.5;exitDx=0;exitDy=0;fillColor=#ffe6cc;strokeColor=#d79b00;" edge="1" parent="G10Xkep8nLB2AmkVrxiF-606">
          <mxGeometry width="50" height="50" relative="1" as="geometry">
            <mxPoint x="125" y="104.75999999999999" as="sourcePoint" />
            <mxPoint x="160" y="104.75999999999999" as="targetPoint" />
          </mxGeometry>
        </mxCell>
        <mxCell id="G10Xkep8nLB2AmkVrxiF-623" value="" style="endArrow=none;html=1;rounded=0;exitX=1;exitY=0.5;exitDx=0;exitDy=0;" edge="1" parent="G10Xkep8nLB2AmkVrxiF-606">
          <mxGeometry width="50" height="50" relative="1" as="geometry">
            <mxPoint x="125" y="144.76" as="sourcePoint" />
            <mxPoint x="160" y="144.76" as="targetPoint" />
          </mxGeometry>
        </mxCell>
        <mxCell id="G10Xkep8nLB2AmkVrxiF-624" value="" style="endArrow=none;html=1;rounded=0;exitX=1;exitY=0.5;exitDx=0;exitDy=0;" edge="1" parent="G10Xkep8nLB2AmkVrxiF-606">
          <mxGeometry width="50" height="50" relative="1" as="geometry">
            <mxPoint x="125" y="184.76" as="sourcePoint" />
            <mxPoint x="160" y="184.76" as="targetPoint" />
          </mxGeometry>
        </mxCell>
        <mxCell id="G10Xkep8nLB2AmkVrxiF-625" value="" style="endArrow=none;html=1;rounded=0;exitX=1;exitY=0.5;exitDx=0;exitDy=0;" edge="1" parent="G10Xkep8nLB2AmkVrxiF-606">
          <mxGeometry width="50" height="50" relative="1" as="geometry">
            <mxPoint x="125" y="224.76" as="sourcePoint" />
            <mxPoint x="160" y="224.76" as="targetPoint" />
          </mxGeometry>
        </mxCell>
        <mxCell id="G10Xkep8nLB2AmkVrxiF-626" value="" style="endArrow=none;html=1;rounded=0;exitX=1;exitY=0.5;exitDx=0;exitDy=0;fillColor=#ffe6cc;strokeColor=#d79b00;" edge="1" parent="G10Xkep8nLB2AmkVrxiF-606">
          <mxGeometry width="50" height="50" relative="1" as="geometry">
            <mxPoint y="24.75999999999999" as="sourcePoint" />
            <mxPoint x="35" y="24.75999999999999" as="targetPoint" />
          </mxGeometry>
        </mxCell>
        <mxCell id="G10Xkep8nLB2AmkVrxiF-627" value="&lt;br&gt;" style="edgeLabel;html=1;align=center;verticalAlign=middle;resizable=0;points=[];" vertex="1" connectable="0" parent="G10Xkep8nLB2AmkVrxiF-626">
          <mxGeometry x="0.1184" y="1" relative="1" as="geometry">
            <mxPoint as="offset" />
          </mxGeometry>
        </mxCell>
        <mxCell id="G10Xkep8nLB2AmkVrxiF-628" value="" style="endArrow=none;html=1;rounded=0;exitX=1;exitY=0.5;exitDx=0;exitDy=0;" edge="1" parent="G10Xkep8nLB2AmkVrxiF-606">
          <mxGeometry width="50" height="50" relative="1" as="geometry">
            <mxPoint y="64.75999999999999" as="sourcePoint" />
            <mxPoint x="35" y="64.75999999999999" as="targetPoint" />
          </mxGeometry>
        </mxCell>
        <mxCell id="G10Xkep8nLB2AmkVrxiF-629" value="" style="endArrow=none;html=1;rounded=0;exitX=1;exitY=0.5;exitDx=0;exitDy=0;" edge="1" parent="G10Xkep8nLB2AmkVrxiF-606">
          <mxGeometry width="50" height="50" relative="1" as="geometry">
            <mxPoint y="104.75999999999999" as="sourcePoint" />
            <mxPoint x="35" y="104.75999999999999" as="targetPoint" />
          </mxGeometry>
        </mxCell>
        <mxCell id="G10Xkep8nLB2AmkVrxiF-630" value="" style="endArrow=none;html=1;rounded=0;exitX=1;exitY=0.5;exitDx=0;exitDy=0;fillColor=#ffe6cc;strokeColor=#d79b00;" edge="1" parent="G10Xkep8nLB2AmkVrxiF-606">
          <mxGeometry width="50" height="50" relative="1" as="geometry">
            <mxPoint y="144.76" as="sourcePoint" />
            <mxPoint x="35" y="144.76" as="targetPoint" />
          </mxGeometry>
        </mxCell>
        <mxCell id="G10Xkep8nLB2AmkVrxiF-631" value="" style="endArrow=none;html=1;rounded=0;exitX=1;exitY=0.5;exitDx=0;exitDy=0;" edge="1" parent="G10Xkep8nLB2AmkVrxiF-606">
          <mxGeometry width="50" height="50" relative="1" as="geometry">
            <mxPoint y="184.76" as="sourcePoint" />
            <mxPoint x="35" y="184.76" as="targetPoint" />
          </mxGeometry>
        </mxCell>
        <mxCell id="G10Xkep8nLB2AmkVrxiF-632" value="" style="endArrow=none;html=1;rounded=0;exitX=1;exitY=0.5;exitDx=0;exitDy=0;" edge="1" parent="G10Xkep8nLB2AmkVrxiF-606">
          <mxGeometry width="50" height="50" relative="1" as="geometry">
            <mxPoint y="224.76" as="sourcePoint" />
            <mxPoint x="35" y="224.76" as="targetPoint" />
          </mxGeometry>
        </mxCell>
        <mxCell id="G10Xkep8nLB2AmkVrxiF-633" value="" style="endArrow=none;html=1;rounded=0;exitX=1;exitY=0.5;exitDx=0;exitDy=0;entryX=0;entryY=0.5;entryDx=0;entryDy=0;fillColor=#ffe6cc;strokeColor=#d79b00;" edge="1" parent="G10Xkep8nLB2AmkVrxiF-606" source="G10Xkep8nLB2AmkVrxiF-619" target="G10Xkep8nLB2AmkVrxiF-613">
          <mxGeometry width="50" height="50" relative="1" as="geometry">
            <mxPoint x="70" y="70" as="sourcePoint" />
            <mxPoint x="120" y="20" as="targetPoint" />
          </mxGeometry>
        </mxCell>
        <mxCell id="G10Xkep8nLB2AmkVrxiF-634" value="" style="endArrow=none;html=1;rounded=0;exitX=1;exitY=0.5;exitDx=0;exitDy=0;entryX=0;entryY=0.5;entryDx=0;entryDy=0;" edge="1" parent="G10Xkep8nLB2AmkVrxiF-606">
          <mxGeometry width="50" height="50" relative="1" as="geometry">
            <mxPoint x="45" y="64.65999999999997" as="sourcePoint" />
            <mxPoint x="115" y="64.65999999999997" as="targetPoint" />
          </mxGeometry>
        </mxCell>
        <mxCell id="G10Xkep8nLB2AmkVrxiF-635" value="" style="endArrow=none;html=1;rounded=0;entryX=0;entryY=0.5;entryDx=0;entryDy=0;exitX=1;exitY=0.5;exitDx=0;exitDy=0;fillColor=#ffe6cc;strokeColor=#d79b00;" edge="1" parent="G10Xkep8nLB2AmkVrxiF-606" source="G10Xkep8nLB2AmkVrxiF-615" target="G10Xkep8nLB2AmkVrxiF-608">
          <mxGeometry width="50" height="50" relative="1" as="geometry">
            <mxPoint x="60" y="160" as="sourcePoint" />
            <mxPoint x="110" y="110" as="targetPoint" />
          </mxGeometry>
        </mxCell>
        <mxCell id="G10Xkep8nLB2AmkVrxiF-636" value="" style="endArrow=none;html=1;rounded=0;entryX=0;entryY=0.5;entryDx=0;entryDy=0;exitX=1;exitY=0.5;exitDx=0;exitDy=0;" edge="1" parent="G10Xkep8nLB2AmkVrxiF-606" source="G10Xkep8nLB2AmkVrxiF-614" target="G10Xkep8nLB2AmkVrxiF-609">
          <mxGeometry width="50" height="50" relative="1" as="geometry">
            <mxPoint x="55" y="155" as="sourcePoint" />
            <mxPoint x="125" y="115" as="targetPoint" />
          </mxGeometry>
        </mxCell>
        <mxCell id="G10Xkep8nLB2AmkVrxiF-637" value="" style="endArrow=none;html=1;rounded=0;exitX=1;exitY=0.5;exitDx=0;exitDy=0;entryX=0;entryY=0.5;entryDx=0;entryDy=0;" edge="1" parent="G10Xkep8nLB2AmkVrxiF-606">
          <mxGeometry width="50" height="50" relative="1" as="geometry">
            <mxPoint x="45" y="184.65999999999997" as="sourcePoint" />
            <mxPoint x="115" y="184.65999999999997" as="targetPoint" />
          </mxGeometry>
        </mxCell>
        <mxCell id="G10Xkep8nLB2AmkVrxiF-638" value="" style="endArrow=none;html=1;rounded=0;exitX=1;exitY=0.5;exitDx=0;exitDy=0;entryX=0;entryY=0.5;entryDx=0;entryDy=0;" edge="1" parent="G10Xkep8nLB2AmkVrxiF-606">
          <mxGeometry width="50" height="50" relative="1" as="geometry">
            <mxPoint x="45" y="224.65999999999985" as="sourcePoint" />
            <mxPoint x="115" y="224.65999999999985" as="targetPoint" />
          </mxGeometry>
        </mxCell>
        <mxCell id="G10Xkep8nLB2AmkVrxiF-639" value="" style="endArrow=none;html=1;rounded=0;fillColor=#ffcd28;gradientColor=#ffa500;strokeColor=#d79b00;" edge="1" parent="G10Xkep8nLB2AmkVrxiF-606">
          <mxGeometry width="50" height="50" relative="1" as="geometry">
            <mxPoint x="140" y="25" as="sourcePoint" />
            <mxPoint x="150" y="15" as="targetPoint" />
          </mxGeometry>
        </mxCell>
        <mxCell id="G10Xkep8nLB2AmkVrxiF-640" value="" style="endArrow=none;html=1;rounded=0;fillColor=#ffcd28;gradientColor=#ffa500;strokeColor=#d79b00;" edge="1" parent="G10Xkep8nLB2AmkVrxiF-606">
          <mxGeometry width="50" height="50" relative="1" as="geometry">
            <mxPoint x="140" y="25" as="sourcePoint" />
            <mxPoint x="150" y="35" as="targetPoint" />
          </mxGeometry>
        </mxCell>
        <mxCell id="G10Xkep8nLB2AmkVrxiF-641" value="" style="endArrow=none;html=1;rounded=0;fillColor=#ffcd28;gradientColor=#ffa500;strokeColor=#d79b00;" edge="1" parent="G10Xkep8nLB2AmkVrxiF-606">
          <mxGeometry width="50" height="50" relative="1" as="geometry">
            <mxPoint x="150" y="105" as="sourcePoint" />
            <mxPoint x="140" y="95" as="targetPoint" />
          </mxGeometry>
        </mxCell>
        <mxCell id="G10Xkep8nLB2AmkVrxiF-642" value="" style="endArrow=none;html=1;rounded=0;fillColor=#ffcd28;gradientColor=#ffa500;strokeColor=#d79b00;" edge="1" parent="G10Xkep8nLB2AmkVrxiF-606">
          <mxGeometry width="50" height="50" relative="1" as="geometry">
            <mxPoint x="150" y="105" as="sourcePoint" />
            <mxPoint x="140" y="115" as="targetPoint" />
          </mxGeometry>
        </mxCell>
        <mxCell id="G10Xkep8nLB2AmkVrxiF-644" value="A" style="text;html=1;align=center;verticalAlign=middle;resizable=0;points=[];autosize=1;strokeColor=none;fillColor=none;" vertex="1" parent="G10Xkep8nLB2AmkVrxiF-490">
          <mxGeometry x="760" y="42" width="30" height="30" as="geometry" />
        </mxCell>
        <mxCell id="G10Xkep8nLB2AmkVrxiF-645" value="B" style="text;html=1;align=center;verticalAlign=middle;resizable=0;points=[];autosize=1;strokeColor=none;fillColor=none;" vertex="1" parent="G10Xkep8nLB2AmkVrxiF-490">
          <mxGeometry x="760" y="82" width="30" height="30" as="geometry" />
        </mxCell>
        <mxCell id="G10Xkep8nLB2AmkVrxiF-646" value="C" style="text;html=1;align=center;verticalAlign=middle;resizable=0;points=[];autosize=1;strokeColor=none;fillColor=none;" vertex="1" parent="G10Xkep8nLB2AmkVrxiF-490">
          <mxGeometry x="760" y="122" width="30" height="30" as="geometry" />
        </mxCell>
        <mxCell id="G10Xkep8nLB2AmkVrxiF-647" value="D" style="text;html=1;align=center;verticalAlign=middle;resizable=0;points=[];autosize=1;strokeColor=none;fillColor=none;" vertex="1" parent="G10Xkep8nLB2AmkVrxiF-490">
          <mxGeometry x="760" y="162" width="30" height="30" as="geometry" />
        </mxCell>
        <mxCell id="G10Xkep8nLB2AmkVrxiF-648" value="E" style="text;html=1;align=center;verticalAlign=middle;resizable=0;points=[];autosize=1;strokeColor=none;fillColor=none;" vertex="1" parent="G10Xkep8nLB2AmkVrxiF-490">
          <mxGeometry x="760" y="202" width="30" height="30" as="geometry" />
        </mxCell>
        <mxCell id="G10Xkep8nLB2AmkVrxiF-649" value="F" style="text;html=1;align=center;verticalAlign=middle;resizable=0;points=[];autosize=1;strokeColor=none;fillColor=none;" vertex="1" parent="G10Xkep8nLB2AmkVrxiF-490">
          <mxGeometry x="760" y="242" width="30" height="30" as="geometry" />
        </mxCell>
        <mxCell id="G10Xkep8nLB2AmkVrxiF-650" value="&lt;font face=&quot;Times New Roman&quot;&gt;II&lt;/font&gt;" style="text;html=1;align=center;verticalAlign=middle;resizable=0;points=[];autosize=1;strokeColor=none;fillColor=none;" vertex="1" parent="G10Xkep8nLB2AmkVrxiF-490">
          <mxGeometry x="345" width="30" height="30" as="geometry" />
        </mxCell>
        <mxCell id="G10Xkep8nLB2AmkVrxiF-651" value="&lt;font face=&quot;Times New Roman&quot;&gt;III&lt;/font&gt;" style="text;html=1;align=center;verticalAlign=middle;resizable=0;points=[];autosize=1;strokeColor=none;fillColor=none;" vertex="1" parent="G10Xkep8nLB2AmkVrxiF-490">
          <mxGeometry x="500" width="40" height="30" as="geometry" />
        </mxCell>
        <mxCell id="G10Xkep8nLB2AmkVrxiF-652" value="&lt;font face=&quot;Times New Roman&quot;&gt;I&lt;/font&gt;" style="text;html=1;align=center;verticalAlign=middle;resizable=0;points=[];autosize=1;strokeColor=none;fillColor=none;" vertex="1" parent="G10Xkep8nLB2AmkVrxiF-490">
          <mxGeometry x="185" width="30" height="30" as="geometry" />
        </mxCell>
        <mxCell id="G10Xkep8nLB2AmkVrxiF-653" value="&lt;font face=&quot;Times New Roman&quot;&gt;UKW-B&lt;/font&gt;" style="text;html=1;align=center;verticalAlign=middle;resizable=0;points=[];autosize=1;strokeColor=none;fillColor=none;" vertex="1" parent="G10Xkep8nLB2AmkVrxiF-490">
          <mxGeometry x="10" width="60" height="30" as="geometry" />
        </mxCell>
        <mxCell id="G10Xkep8nLB2AmkVrxiF-654" value="&lt;font face=&quot;Times New Roman&quot;&gt;Plugboard&lt;br&gt;&lt;/font&gt;" style="text;html=1;align=center;verticalAlign=middle;resizable=0;points=[];autosize=1;strokeColor=none;fillColor=none;" vertex="1" parent="G10Xkep8nLB2AmkVrxiF-490">
          <mxGeometry x="645" width="70" height="30" as="geometry" />
        </mxCell>
      </root>
    </mxGraphModel>
  </diagram>
</mxfile>
